<mxfile host="Electron" agent="Mozilla/5.0 (Windows NT 10.0; Win64; x64) AppleWebKit/537.36 (KHTML, like Gecko) draw.io/25.0.2 Chrome/128.0.6613.186 Electron/32.2.5 Safari/537.36" version="25.0.2">
  <diagram name="Seite-1" id="_xlTrjUbBoeg_nsTucc6">
    <mxGraphModel dx="3404" dy="2251" grid="1" gridSize="10" guides="1" tooltips="1" connect="1" arrows="1" fold="1" page="1" pageScale="1" pageWidth="827" pageHeight="1169" math="0" shadow="0">
      <root>
        <mxCell id="0" />
        <mxCell id="1" parent="0" />
        <mxCell id="4zg3qLO7-xDs-M1nTAMU-290" value="" style="triangle;whiteSpace=wrap;html=1;direction=west;fillColor=#CCE5FF;opacity=30;strokeColor=none;" parent="1" vertex="1">
          <mxGeometry x="-550" y="195" width="97" height="130" as="geometry" />
        </mxCell>
        <mxCell id="4zg3qLO7-xDs-M1nTAMU-266" value="" style="rounded=1;whiteSpace=wrap;html=1;opacity=50;strokeWidth=16;fillColor=#D5E8D4;strokeColor=none;arcSize=0;" parent="1" vertex="1">
          <mxGeometry x="340" y="-400" width="1010" height="430" as="geometry" />
        </mxCell>
        <mxCell id="4zg3qLO7-xDs-M1nTAMU-237" value="g_table_dict" style="rounded=1;whiteSpace=wrap;html=1;fillColor=#CCE5FF;gradientColor=none;opacity=30;verticalAlign=bottom;align=left;" parent="1" vertex="1">
          <mxGeometry x="-455" y="183" width="680" height="154" as="geometry" />
        </mxCell>
        <mxCell id="4zg3qLO7-xDs-M1nTAMU-84" value="&lt;font style=&quot;font-size: 36px;&quot;&gt;DVPDC Code Structure&lt;/font&gt;" style="text;html=1;align=center;verticalAlign=middle;resizable=0;points=[];autosize=1;strokeColor=none;fillColor=none;" parent="1" vertex="1">
          <mxGeometry x="-237.5" y="-1169" width="400" height="60" as="geometry" />
        </mxCell>
        <mxCell id="4zg3qLO7-xDs-M1nTAMU-97" value="dvpdc_worker" style="swimlane;fontStyle=0;childLayout=stackLayout;horizontal=1;startSize=30;horizontalStack=0;resizeParent=1;resizeParentMax=0;resizeLast=0;collapsible=1;marginBottom=0;whiteSpace=wrap;html=1;fillColor=#A9C4EB;" parent="1" vertex="1">
          <mxGeometry x="-453" y="-820" width="180" height="140" as="geometry">
            <mxRectangle x="-810" y="1480" width="120" height="30" as="alternateBounds" />
          </mxGeometry>
        </mxCell>
        <mxCell id="4zg3qLO7-xDs-M1nTAMU-98" value="&lt;font style=&quot;font-size: 8px;&quot;&gt;loads model profiles into g_model_profile_dict&lt;/font&gt;" style="text;strokeColor=none;fillColor=#A9C4EB;align=left;verticalAlign=middle;spacingLeft=4;spacingRight=4;overflow=hidden;points=[[0,0.5],[1,0.5]];portConstraint=eastwest;rotatable=0;whiteSpace=wrap;html=1;" parent="4zg3qLO7-xDs-M1nTAMU-97" vertex="1">
          <mxGeometry y="30" width="180" height="30" as="geometry" />
        </mxCell>
        <mxCell id="4zg3qLO7-xDs-M1nTAMU-99" value="&lt;font style=&quot;font-size: 8px;&quot;&gt;initializes g_table_dict with relevant data&lt;/font&gt;" style="text;strokeColor=none;fillColor=#A9C4EB;align=left;verticalAlign=middle;spacingLeft=4;spacingRight=4;overflow=hidden;points=[[0,0.5],[1,0.5]];portConstraint=eastwest;rotatable=0;whiteSpace=wrap;html=1;" parent="4zg3qLO7-xDs-M1nTAMU-97" vertex="1">
          <mxGeometry y="60" width="180" height="30" as="geometry" />
        </mxCell>
        <mxCell id="4zg3qLO7-xDs-M1nTAMU-100" value="&lt;font style=&quot;font-size: 8px;&quot;&gt;loads model profiles into g_model_profile_dict&lt;/font&gt;" style="text;strokeColor=none;fillColor=#A9C4EB;align=left;verticalAlign=middle;spacingLeft=4;spacingRight=4;overflow=hidden;points=[[0,0.5],[1,0.5]];portConstraint=eastwest;rotatable=0;whiteSpace=wrap;html=1;" parent="4zg3qLO7-xDs-M1nTAMU-97" vertex="1">
          <mxGeometry y="90" width="180" height="50" as="geometry" />
        </mxCell>
        <mxCell id="4zg3qLO7-xDs-M1nTAMU-102" value="assemble_dvpi" style="swimlane;fontStyle=0;childLayout=stackLayout;horizontal=1;startSize=30;horizontalStack=0;resizeParent=1;resizeParentMax=0;resizeLast=0;collapsible=1;marginBottom=0;whiteSpace=wrap;html=1;fillColor=#C3ABD0;" parent="1" vertex="1">
          <mxGeometry x="-623" y="690" width="260" height="140" as="geometry">
            <mxRectangle x="-420" y="1370" width="120" height="30" as="alternateBounds" />
          </mxGeometry>
        </mxCell>
        <mxCell id="4zg3qLO7-xDs-M1nTAMU-103" value="&lt;font style=&quot;font-size: 8px;&quot;&gt;uses g_model_profile_dict to get model information&lt;/font&gt;" style="text;strokeColor=none;fillColor=#C3ABD0;align=left;verticalAlign=middle;spacingLeft=4;spacingRight=4;overflow=hidden;points=[[0,0.5],[1,0.5]];portConstraint=eastwest;rotatable=0;whiteSpace=wrap;html=1;" parent="4zg3qLO7-xDs-M1nTAMU-102" vertex="1">
          <mxGeometry y="30" width="260" height="30" as="geometry" />
        </mxCell>
        <mxCell id="4zg3qLO7-xDs-M1nTAMU-104" value="&lt;font style=&quot;font-size: 8px;&quot;&gt;uses g_table_dict&amp;nbsp;to collect table information for DVPI assembly&lt;br&gt;uses g_hash_dict to create hash keys for tables&lt;br&gt;uses g_field_dict to determine field mappings&lt;br&gt;adds meta information in g_dvpi_document&amp;nbsp;&lt;br&gt;&lt;/font&gt;" style="text;strokeColor=none;fillColor=#C3ABD0;align=left;verticalAlign=middle;spacingLeft=4;spacingRight=4;overflow=hidden;points=[[0,0.5],[1,0.5]];portConstraint=eastwest;rotatable=0;whiteSpace=wrap;html=1;" parent="4zg3qLO7-xDs-M1nTAMU-102" vertex="1">
          <mxGeometry y="60" width="260" height="60" as="geometry" />
        </mxCell>
        <mxCell id="4zg3qLO7-xDs-M1nTAMU-105" value="&lt;font style=&quot;font-size: 8px;&quot;&gt;sets g_pipeline_model_profile_name from configuration&lt;/font&gt;" style="text;strokeColor=none;fillColor=#C3ABD0;align=left;verticalAlign=middle;spacingLeft=4;spacingRight=4;overflow=hidden;points=[[0,0.5],[1,0.5]];portConstraint=eastwest;rotatable=0;whiteSpace=wrap;html=1;" parent="4zg3qLO7-xDs-M1nTAMU-102" vertex="1">
          <mxGeometry y="120" width="260" height="20" as="geometry" />
        </mxCell>
        <mxCell id="4zg3qLO7-xDs-M1nTAMU-111" value="assemble_dvpi_table_entry" style="swimlane;fontStyle=0;childLayout=stackLayout;horizontal=1;startSize=30;horizontalStack=0;resizeParent=1;resizeParentMax=0;resizeLast=0;collapsible=1;marginBottom=0;whiteSpace=wrap;html=1;fillColor=#FFCC99;" parent="1" vertex="1">
          <mxGeometry x="-550" y="1100" width="183" height="90" as="geometry" />
        </mxCell>
        <mxCell id="4zg3qLO7-xDs-M1nTAMU-112" value="&lt;font style=&quot;font-size: 8px;&quot;&gt;uses g_table_dict&amp;nbsp;to get properties of each table&lt;/font&gt;" style="text;strokeColor=none;fillColor=#FFCC99;align=left;verticalAlign=middle;spacingLeft=4;spacingRight=4;overflow=hidden;points=[[0,0.5],[1,0.5]];portConstraint=eastwest;rotatable=0;whiteSpace=wrap;html=1;" parent="4zg3qLO7-xDs-M1nTAMU-111" vertex="1">
          <mxGeometry y="30" width="183" height="30" as="geometry" />
        </mxCell>
        <mxCell id="4zg3qLO7-xDs-M1nTAMU-113" value="&lt;font style=&quot;font-size: 8px;&quot;&gt;uses g_field_dict&amp;nbsp;to add field properties to tables&lt;/font&gt;" style="text;strokeColor=none;fillColor=#FFCC99;align=left;verticalAlign=middle;spacingLeft=4;spacingRight=4;overflow=hidden;points=[[0,0.5],[1,0.5]];portConstraint=eastwest;rotatable=0;whiteSpace=wrap;html=1;" parent="4zg3qLO7-xDs-M1nTAMU-111" vertex="1">
          <mxGeometry y="60" width="183" height="30" as="geometry" />
        </mxCell>
        <mxCell id="4zg3qLO7-xDs-M1nTAMU-115" value="&lt;font style=&quot;font-size: 12px;&quot;&gt;assemble_dvpi_parse_set&lt;/font&gt;" style="swimlane;fontStyle=0;childLayout=stackLayout;horizontal=1;startSize=30;horizontalStack=0;resizeParent=1;resizeParentMax=0;resizeLast=0;collapsible=1;marginBottom=0;whiteSpace=wrap;html=1;fillColor=#66B2FF;" parent="1" vertex="1">
          <mxGeometry x="-313" y="1100" width="183" height="90" as="geometry">
            <mxRectangle x="-153" y="1480" width="170" height="30" as="alternateBounds" />
          </mxGeometry>
        </mxCell>
        <mxCell id="4zg3qLO7-xDs-M1nTAMU-116" value="&lt;font style=&quot;font-size: 8px;&quot;&gt;uses g_field_dict to add parse sets&lt;/font&gt;" style="text;strokeColor=none;fillColor=#66B2FF;align=left;verticalAlign=middle;spacingLeft=4;spacingRight=4;overflow=hidden;points=[[0,0.5],[1,0.5]];portConstraint=eastwest;rotatable=0;whiteSpace=wrap;html=1;" parent="4zg3qLO7-xDs-M1nTAMU-115" vertex="1">
          <mxGeometry y="30" width="183" height="30" as="geometry" />
        </mxCell>
        <mxCell id="4zg3qLO7-xDs-M1nTAMU-117" value="&lt;font style=&quot;font-size: 8px;&quot;&gt;adds parsing rules and sets to g_dvpi_document&lt;/font&gt;" style="text;strokeColor=none;fillColor=#66B2FF;align=left;verticalAlign=middle;spacingLeft=4;spacingRight=4;overflow=hidden;points=[[0,0.5],[1,0.5]];portConstraint=eastwest;rotatable=0;whiteSpace=wrap;html=1;" parent="4zg3qLO7-xDs-M1nTAMU-115" vertex="1">
          <mxGeometry y="60" width="183" height="30" as="geometry" />
        </mxCell>
        <mxCell id="4zg3qLO7-xDs-M1nTAMU-118" value="&lt;font style=&quot;font-size: 12px;&quot;&gt;assemble_dvpi_hash_mappings&lt;/font&gt;" style="swimlane;fontStyle=0;childLayout=stackLayout;horizontal=1;startSize=30;horizontalStack=0;resizeParent=1;resizeParentMax=0;resizeLast=0;collapsible=1;marginBottom=0;whiteSpace=wrap;html=1;fillColor=#FF99CC;" parent="1" vertex="1">
          <mxGeometry x="-323" y="1380" width="183" height="90" as="geometry">
            <mxRectangle x="-153" y="1480" width="170" height="30" as="alternateBounds" />
          </mxGeometry>
        </mxCell>
        <mxCell id="4zg3qLO7-xDs-M1nTAMU-119" value="&lt;font style=&quot;font-size: 8px;&quot;&gt;adds hash mappings to g_hash_dict&lt;/font&gt;" style="text;strokeColor=none;fillColor=#FF99CC;align=left;verticalAlign=middle;spacingLeft=4;spacingRight=4;overflow=hidden;points=[[0,0.5],[1,0.5]];portConstraint=eastwest;rotatable=0;whiteSpace=wrap;html=1;" parent="4zg3qLO7-xDs-M1nTAMU-118" vertex="1">
          <mxGeometry y="30" width="183" height="30" as="geometry" />
        </mxCell>
        <mxCell id="4zg3qLO7-xDs-M1nTAMU-120" value="&lt;font style=&quot;font-size: 8px;&quot;&gt;adds hash mappings to g_dvpi_document&lt;/font&gt;" style="text;strokeColor=none;fillColor=#FF99CC;align=left;verticalAlign=middle;spacingLeft=4;spacingRight=4;overflow=hidden;points=[[0,0.5],[1,0.5]];portConstraint=eastwest;rotatable=0;whiteSpace=wrap;html=1;" parent="4zg3qLO7-xDs-M1nTAMU-118" vertex="1">
          <mxGeometry y="60" width="183" height="30" as="geometry" />
        </mxCell>
        <mxCell id="4zg3qLO7-xDs-M1nTAMU-121" value="&lt;font style=&quot;font-size: 12px;&quot;&gt;assemble_dvpi_data_mappings&lt;/font&gt;" style="swimlane;fontStyle=0;childLayout=stackLayout;horizontal=1;startSize=30;horizontalStack=0;resizeParent=1;resizeParentMax=0;resizeLast=0;collapsible=1;marginBottom=0;whiteSpace=wrap;html=1;fillColor=#67AB9F;" parent="1" vertex="1">
          <mxGeometry x="-90" y="1380" width="183" height="60" as="geometry">
            <mxRectangle x="-153" y="1480" width="170" height="30" as="alternateBounds" />
          </mxGeometry>
        </mxCell>
        <mxCell id="4zg3qLO7-xDs-M1nTAMU-122" value="&lt;font style=&quot;font-size: 8px;&quot;&gt;adds data mappings to g_dvpi_document&lt;/font&gt;" style="text;strokeColor=none;fillColor=#67AB9F;align=left;verticalAlign=middle;spacingLeft=4;spacingRight=4;overflow=hidden;points=[[0,0.5],[1,0.5]];portConstraint=eastwest;rotatable=0;whiteSpace=wrap;html=1;" parent="4zg3qLO7-xDs-M1nTAMU-121" vertex="1">
          <mxGeometry y="30" width="183" height="30" as="geometry" />
        </mxCell>
        <mxCell id="4zg3qLO7-xDs-M1nTAMU-124" value="&lt;font style=&quot;font-size: 12px;&quot;&gt;assemble_dvpi_stage_columns&lt;/font&gt;" style="swimlane;fontStyle=0;childLayout=stackLayout;horizontal=1;startSize=30;horizontalStack=0;resizeParent=1;resizeParentMax=0;resizeLast=0;collapsible=1;marginBottom=0;whiteSpace=wrap;html=1;fillColor=#66FFB3;" parent="1" vertex="1">
          <mxGeometry x="140" y="1380" width="183" height="90" as="geometry">
            <mxRectangle x="-153" y="1480" width="170" height="30" as="alternateBounds" />
          </mxGeometry>
        </mxCell>
        <mxCell id="4zg3qLO7-xDs-M1nTAMU-125" value="&lt;font style=&quot;font-size: 8px;&quot;&gt;adds staging columns to g_dvpi_document&lt;/font&gt;" style="text;strokeColor=none;fillColor=#66FFB3;align=left;verticalAlign=middle;spacingLeft=4;spacingRight=4;overflow=hidden;points=[[0,0.5],[1,0.5]];portConstraint=eastwest;rotatable=0;whiteSpace=wrap;html=1;" parent="4zg3qLO7-xDs-M1nTAMU-124" vertex="1">
          <mxGeometry y="30" width="183" height="30" as="geometry" />
        </mxCell>
        <mxCell id="4zg3qLO7-xDs-M1nTAMU-126" value="&lt;font style=&quot;font-size: 8px;&quot;&gt;uses g_pipeline_model_profile_name to reference the model profile&amp;nbsp;&lt;/font&gt;" style="text;strokeColor=none;fillColor=#66FFB3;align=left;verticalAlign=middle;spacingLeft=4;spacingRight=4;overflow=hidden;points=[[0,0.5],[1,0.5]];portConstraint=eastwest;rotatable=0;whiteSpace=wrap;html=1;" parent="4zg3qLO7-xDs-M1nTAMU-124" vertex="1">
          <mxGeometry y="60" width="183" height="30" as="geometry" />
        </mxCell>
        <mxCell id="4zg3qLO7-xDs-M1nTAMU-127" value="writeDvpiSummary" style="swimlane;fontStyle=0;childLayout=stackLayout;horizontal=1;startSize=30;horizontalStack=0;resizeParent=1;resizeParentMax=0;resizeLast=0;collapsible=1;marginBottom=0;whiteSpace=wrap;html=1;fillColor=#E1D5E7;" parent="1" vertex="1">
          <mxGeometry x="1460" y="-337.5" width="183" height="60" as="geometry">
            <mxRectangle x="-153" y="1480" width="170" height="30" as="alternateBounds" />
          </mxGeometry>
        </mxCell>
        <mxCell id="4zg3qLO7-xDs-M1nTAMU-128" value="&lt;font style=&quot;font-size: 8px;&quot;&gt;updates g_error_count during writing process when errors are found&lt;/font&gt;" style="text;strokeColor=none;fillColor=#E1D5E7;align=left;verticalAlign=middle;spacingLeft=4;spacingRight=4;overflow=hidden;points=[[0,0.5],[1,0.5]];portConstraint=eastwest;rotatable=0;whiteSpace=wrap;html=1;" parent="4zg3qLO7-xDs-M1nTAMU-127" vertex="1">
          <mxGeometry y="30" width="183" height="30" as="geometry" />
        </mxCell>
        <mxCell id="4zg3qLO7-xDs-M1nTAMU-133" value="g_dvpi_document" style="ellipse;whiteSpace=wrap;html=1;fillColor=#FFFFCC;" parent="1" vertex="1">
          <mxGeometry x="-703" y="1590" width="120" height="80" as="geometry" />
        </mxCell>
        <mxCell id="4zg3qLO7-xDs-M1nTAMU-191" value="transform_*_table" style="swimlane;fontStyle=0;childLayout=stackLayout;horizontal=1;startSize=30;horizontalStack=0;resizeParent=1;resizeParentMax=0;resizeLast=0;collapsible=1;marginBottom=0;whiteSpace=wrap;html=1;fillColor=#F19C99;" parent="1" vertex="1">
          <mxGeometry x="-803" y="-340" width="220" height="140" as="geometry">
            <mxRectangle x="-420" y="1370" width="120" height="30" as="alternateBounds" />
          </mxGeometry>
        </mxCell>
        <mxCell id="4zg3qLO7-xDs-M1nTAMU-192" value="&lt;font style=&quot;font-size: 8px;&quot;&gt;* in accordance with hub / link / sat / ref&lt;/font&gt;" style="text;strokeColor=none;fillColor=#F19C99;align=left;verticalAlign=middle;spacingLeft=4;spacingRight=4;overflow=hidden;points=[[0,0.5],[1,0.5]];portConstraint=eastwest;rotatable=0;whiteSpace=wrap;html=1;" parent="4zg3qLO7-xDs-M1nTAMU-191" vertex="1">
          <mxGeometry y="30" width="220" height="30" as="geometry" />
        </mxCell>
        <mxCell id="4zg3qLO7-xDs-M1nTAMU-193" value="&lt;font style=&quot;font-size: 8px;&quot;&gt;uses g_table_dict to get properties of the hub/link/sat/ref table.&lt;br&gt;uses g_model_profile_dict to apply transformations&lt;br&gt;&lt;br&gt;&lt;/font&gt;" style="text;strokeColor=none;fillColor=#F19C99;align=left;verticalAlign=middle;spacingLeft=4;spacingRight=4;overflow=hidden;points=[[0,0.5],[1,0.5]];portConstraint=eastwest;rotatable=0;whiteSpace=wrap;html=1;" parent="4zg3qLO7-xDs-M1nTAMU-191" vertex="1">
          <mxGeometry y="60" width="220" height="60" as="geometry" />
        </mxCell>
        <mxCell id="4zg3qLO7-xDs-M1nTAMU-194" value="&lt;font style=&quot;font-size: 8px;&quot;&gt;uses g_field_dict to apply field mappings.&lt;/font&gt;" style="text;strokeColor=none;fillColor=#F19C99;align=left;verticalAlign=middle;spacingLeft=4;spacingRight=4;overflow=hidden;points=[[0,0.5],[1,0.5]];portConstraint=eastwest;rotatable=0;whiteSpace=wrap;html=1;" parent="4zg3qLO7-xDs-M1nTAMU-191" vertex="1">
          <mxGeometry y="120" width="220" height="20" as="geometry" />
        </mxCell>
        <mxCell id="4zg3qLO7-xDs-M1nTAMU-195" value="derive_content_dependent_*_properties" style="swimlane;fontStyle=0;childLayout=stackLayout;horizontal=1;startSize=30;horizontalStack=0;resizeParent=1;resizeParentMax=0;resizeLast=0;collapsible=1;marginBottom=0;whiteSpace=wrap;html=1;fillColor=#FFCCFF;" parent="1" vertex="1">
          <mxGeometry x="-530" y="-340" width="250" height="110" as="geometry">
            <mxRectangle x="-420" y="1370" width="120" height="30" as="alternateBounds" />
          </mxGeometry>
        </mxCell>
        <mxCell id="4zg3qLO7-xDs-M1nTAMU-196" value="&lt;font style=&quot;font-size: 8px;&quot;&gt;* in accordance with hub / link / sat / ref&lt;/font&gt;" style="text;strokeColor=none;fillColor=#FFCCFF;align=left;verticalAlign=middle;spacingLeft=4;spacingRight=4;overflow=hidden;points=[[0,0.5],[1,0.5]];portConstraint=eastwest;rotatable=0;whiteSpace=wrap;html=1;" parent="4zg3qLO7-xDs-M1nTAMU-195" vertex="1">
          <mxGeometry y="30" width="250" height="30" as="geometry" />
        </mxCell>
        <mxCell id="4zg3qLO7-xDs-M1nTAMU-197" value="&lt;font style=&quot;font-size: 8px;&quot;&gt;uses g_table_dict to update properties of the hub/link/sat/ref table.&lt;br&gt;&lt;br&gt;&lt;/font&gt;" style="text;strokeColor=none;fillColor=#FFCCFF;align=left;verticalAlign=middle;spacingLeft=4;spacingRight=4;overflow=hidden;points=[[0,0.5],[1,0.5]];portConstraint=eastwest;rotatable=0;whiteSpace=wrap;html=1;" parent="4zg3qLO7-xDs-M1nTAMU-195" vertex="1">
          <mxGeometry y="60" width="250" height="30" as="geometry" />
        </mxCell>
        <mxCell id="4zg3qLO7-xDs-M1nTAMU-198" value="&lt;font style=&quot;font-size: 8px;&quot;&gt;uses g_field_dict to apply rules for hub/link/sat/ref tables&amp;nbsp;&lt;/font&gt;" style="text;strokeColor=none;fillColor=#FFCCFF;align=left;verticalAlign=middle;spacingLeft=4;spacingRight=4;overflow=hidden;points=[[0,0.5],[1,0.5]];portConstraint=eastwest;rotatable=0;whiteSpace=wrap;html=1;" parent="4zg3qLO7-xDs-M1nTAMU-195" vertex="1">
          <mxGeometry y="90" width="250" height="20" as="geometry" />
        </mxCell>
        <mxCell id="4zg3qLO7-xDs-M1nTAMU-199" value="add_hash_column_mappings_for_*" style="swimlane;fontStyle=0;childLayout=stackLayout;horizontal=1;startSize=30;horizontalStack=0;resizeParent=1;resizeParentMax=0;resizeLast=0;collapsible=1;marginBottom=0;whiteSpace=wrap;html=1;fillColor=#99FFFF;" parent="1" vertex="1">
          <mxGeometry x="34" y="-337.5" width="250" height="120" as="geometry">
            <mxRectangle x="-420" y="1370" width="120" height="30" as="alternateBounds" />
          </mxGeometry>
        </mxCell>
        <mxCell id="4zg3qLO7-xDs-M1nTAMU-200" value="&lt;font style=&quot;font-size: 8px;&quot;&gt;* in accordance with hub / link / sat / ref&lt;/font&gt;" style="text;strokeColor=none;fillColor=#99FFFF;align=left;verticalAlign=middle;spacingLeft=4;spacingRight=4;overflow=hidden;points=[[0,0.5],[1,0.5]];portConstraint=eastwest;rotatable=0;whiteSpace=wrap;html=1;" parent="4zg3qLO7-xDs-M1nTAMU-199" vertex="1">
          <mxGeometry y="30" width="250" height="30" as="geometry" />
        </mxCell>
        <mxCell id="4zg3qLO7-xDs-M1nTAMU-201" value="&lt;font style=&quot;font-size: 8px;&quot;&gt;uses g_hash_dict to store hash mappings for hub/link/sat/ref table.&lt;br&gt;&lt;br&gt;&lt;/font&gt;" style="text;strokeColor=none;fillColor=#99FFFF;align=left;verticalAlign=middle;spacingLeft=4;spacingRight=4;overflow=hidden;points=[[0,0.5],[1,0.5]];portConstraint=eastwest;rotatable=0;whiteSpace=wrap;html=1;" parent="4zg3qLO7-xDs-M1nTAMU-199" vertex="1">
          <mxGeometry y="60" width="250" height="20" as="geometry" />
        </mxCell>
        <mxCell id="4zg3qLO7-xDs-M1nTAMU-202" value="&lt;font style=&quot;font-size: 8px;&quot;&gt;uses g_field_dict to reference field properties for creating hash mappings&amp;nbsp;&lt;/font&gt;" style="text;strokeColor=none;fillColor=#99FFFF;align=left;verticalAlign=middle;spacingLeft=4;spacingRight=4;overflow=hidden;points=[[0,0.5],[1,0.5]];portConstraint=eastwest;rotatable=0;whiteSpace=wrap;html=1;" parent="4zg3qLO7-xDs-M1nTAMU-199" vertex="1">
          <mxGeometry y="80" width="250" height="40" as="geometry" />
        </mxCell>
        <mxCell id="4zg3qLO7-xDs-M1nTAMU-203" value="g_model_profile_dict" style="ellipse;whiteSpace=wrap;html=1;fillColor=#FFFFCC;" parent="1" vertex="1">
          <mxGeometry x="-550" y="1590" width="120" height="80" as="geometry" />
        </mxCell>
        <mxCell id="4zg3qLO7-xDs-M1nTAMU-204" value="g_field_dict" style="ellipse;whiteSpace=wrap;html=1;fillColor=#FFFFCC;" parent="1" vertex="1">
          <mxGeometry x="-1050" y="210" width="120" height="80" as="geometry" />
        </mxCell>
        <mxCell id="4zg3qLO7-xDs-M1nTAMU-205" value="g_hash_dict" style="ellipse;whiteSpace=wrap;html=1;fillColor=#FFFFCC;" parent="1" vertex="1">
          <mxGeometry x="701.5" y="245" width="120" height="80" as="geometry" />
        </mxCell>
        <mxCell id="4zg3qLO7-xDs-M1nTAMU-206" value="g_table_dict" style="ellipse;whiteSpace=wrap;html=1;fillColor=#FFFFCC;" parent="1" vertex="1">
          <mxGeometry x="-753" y="210" width="120" height="80" as="geometry" />
        </mxCell>
        <mxCell id="4zg3qLO7-xDs-M1nTAMU-221" value="" style="endArrow=none;html=1;rounded=0;startArrow=classic;startFill=1;" parent="1" source="4zg3qLO7-xDs-M1nTAMU-206" target="4zg3qLO7-xDs-M1nTAMU-191" edge="1">
          <mxGeometry width="50" height="50" relative="1" as="geometry">
            <mxPoint x="-470" y="160" as="sourcePoint" />
            <mxPoint x="-670" y="120" as="targetPoint" />
          </mxGeometry>
        </mxCell>
        <mxCell id="4zg3qLO7-xDs-M1nTAMU-224" value="" style="endArrow=none;html=1;rounded=0;startArrow=classic;startFill=1;entryX=0.494;entryY=0.921;entryDx=0;entryDy=0;entryPerimeter=0;" parent="1" source="4zg3qLO7-xDs-M1nTAMU-205" target="4zg3qLO7-xDs-M1nTAMU-202" edge="1">
          <mxGeometry width="50" height="50" relative="1" as="geometry">
            <mxPoint x="-170" y="150" as="sourcePoint" />
            <mxPoint x="-120" y="100" as="targetPoint" />
          </mxGeometry>
        </mxCell>
        <mxCell id="4zg3qLO7-xDs-M1nTAMU-227" value="hash_columns" style="ellipse;whiteSpace=wrap;html=1;fillColor=#CCE5FF;" parent="1" vertex="1">
          <mxGeometry x="-271" y="220" width="120" height="80" as="geometry" />
        </mxCell>
        <mxCell id="4zg3qLO7-xDs-M1nTAMU-228" value="&lt;font&gt;direct_key_&lt;/font&gt;&lt;div&gt;&lt;font&gt;hash_columns&lt;/font&gt;&lt;/div&gt;" style="ellipse;whiteSpace=wrap;html=1;fillColor=#CCE5FF;fontSize=13;" parent="1" vertex="1">
          <mxGeometry x="-105" y="220" width="120" height="80" as="geometry" />
        </mxCell>
        <mxCell id="4zg3qLO7-xDs-M1nTAMU-229" value="&lt;font style=&quot;font-size: 12px;&quot;&gt;load_operations&lt;/font&gt;" style="ellipse;whiteSpace=wrap;html=1;fillColor=#CCE5FF;" parent="1" vertex="1">
          <mxGeometry x="42.5" y="220" width="120" height="80" as="geometry" />
        </mxCell>
        <mxCell id="4zg3qLO7-xDs-M1nTAMU-230" value="data_columns" style="ellipse;whiteSpace=wrap;html=1;fillColor=#CCE5FF;" parent="1" vertex="1">
          <mxGeometry x="-445" y="220" width="120" height="80" as="geometry" />
        </mxCell>
        <mxCell id="4zg3qLO7-xDs-M1nTAMU-241" value="Step 1. add_generic_relation_mappings" style="swimlane;fontStyle=0;childLayout=stackLayout;horizontal=1;startSize=30;horizontalStack=0;resizeParent=1;resizeParentMax=0;resizeLast=0;collapsible=1;marginBottom=0;whiteSpace=wrap;html=1;fillColor=#dae8fc;strokeColor=#6c8ebf;" parent="1" vertex="1">
          <mxGeometry x="-280" y="-310" width="190" height="120" as="geometry" />
        </mxCell>
        <mxCell id="4zg3qLO7-xDs-M1nTAMU-242" value="&lt;font style=&quot;font-size: 10px;&quot;&gt;Reads from field mappings to check for relation names&lt;/font&gt;" style="text;strokeColor=none;fillColor=none;align=left;verticalAlign=middle;spacingLeft=4;spacingRight=4;overflow=hidden;points=[[0,0.5],[1,0.5]];portConstraint=eastwest;rotatable=0;whiteSpace=wrap;html=1;" parent="4zg3qLO7-xDs-M1nTAMU-241" vertex="1">
          <mxGeometry y="30" width="190" height="30" as="geometry" />
        </mxCell>
        <mxCell id="4zg3qLO7-xDs-M1nTAMU-243" value="&lt;font style=&quot;font-size: 10px;&quot;&gt;Updates the field list by assigning mappings&amp;nbsp;&lt;/font&gt;" style="text;strokeColor=none;fillColor=none;align=left;verticalAlign=middle;spacingLeft=4;spacingRight=4;overflow=hidden;points=[[0,0.5],[1,0.5]];portConstraint=eastwest;rotatable=0;whiteSpace=wrap;html=1;" parent="4zg3qLO7-xDs-M1nTAMU-241" vertex="1">
          <mxGeometry y="60" width="190" height="60" as="geometry" />
        </mxCell>
        <mxCell id="4zg3qLO7-xDs-M1nTAMU-245" value="&lt;font style=&quot;font-size: 11px;&quot;&gt;Step 2.&amp;nbsp;determine_load_operations_&lt;br&gt;from_relations_in_mappings&lt;/font&gt;" style="swimlane;fontStyle=0;childLayout=stackLayout;horizontal=1;startSize=30;horizontalStack=0;resizeParent=1;resizeParentMax=0;resizeLast=0;collapsible=1;marginBottom=0;whiteSpace=wrap;html=1;fillColor=#dae8fc;strokeColor=#6c8ebf;" parent="1" vertex="1">
          <mxGeometry x="380" y="-310" width="190" height="120" as="geometry" />
        </mxCell>
        <mxCell id="4zg3qLO7-xDs-M1nTAMU-246" value="&lt;font style=&quot;font-size: 10px;&quot;&gt; Reads field mappings for explicit relations and hub table for unnamed relations&lt;/font&gt;" style="text;strokeColor=none;fillColor=none;align=left;verticalAlign=middle;spacingLeft=4;spacingRight=4;overflow=hidden;points=[[0,0.5],[1,0.5]];portConstraint=eastwest;rotatable=0;whiteSpace=wrap;html=1;" parent="4zg3qLO7-xDs-M1nTAMU-245" vertex="1">
          <mxGeometry y="30" width="190" height="50" as="geometry" />
        </mxCell>
        <mxCell id="4zg3qLO7-xDs-M1nTAMU-247" value="&lt;font style=&quot;font-size: 10px;&quot;&gt;Assigns load operations to tables based on explicit field relations&lt;/font&gt;" style="text;strokeColor=none;fillColor=none;align=left;verticalAlign=middle;spacingLeft=4;spacingRight=4;overflow=hidden;points=[[0,0.5],[1,0.5]];portConstraint=eastwest;rotatable=0;whiteSpace=wrap;html=1;" parent="4zg3qLO7-xDs-M1nTAMU-245" vertex="1">
          <mxGeometry y="80" width="190" height="40" as="geometry" />
        </mxCell>
        <mxCell id="4zg3qLO7-xDs-M1nTAMU-248" value="&lt;font style=&quot;font-size: 11px;&quot;&gt;Step 3.&amp;nbsp;determine_load_operations_&lt;br&gt;for_links_with_parent_&lt;br&gt;relation_directives&lt;/font&gt;" style="swimlane;fontStyle=0;childLayout=stackLayout;horizontal=1;startSize=40;horizontalStack=0;resizeParent=1;resizeParentMax=0;resizeLast=0;collapsible=1;marginBottom=0;whiteSpace=wrap;html=1;fillColor=#dae8fc;strokeColor=#6c8ebf;" parent="1" vertex="1">
          <mxGeometry x="631.5" y="-310" width="190" height="140" as="geometry" />
        </mxCell>
        <mxCell id="4zg3qLO7-xDs-M1nTAMU-249" value="&lt;font style=&quot;font-size: 10px;&quot;&gt; Reads link table definitions to identify explicit parent mappings and&amp;nbsp;mappings for parent hub relations&lt;/font&gt;" style="text;strokeColor=none;fillColor=none;align=left;verticalAlign=middle;spacingLeft=4;spacingRight=4;overflow=hidden;points=[[0,0.5],[1,0.5]];portConstraint=eastwest;rotatable=0;whiteSpace=wrap;html=1;" parent="4zg3qLO7-xDs-M1nTAMU-248" vertex="1">
          <mxGeometry y="40" width="190" height="50" as="geometry" />
        </mxCell>
        <mxCell id="4zg3qLO7-xDs-M1nTAMU-250" value="&lt;font style=&quot;font-size: 10px;&quot;&gt;Adds &quot;+&quot; load operations to links that have explicit relations in their parent hub mappings.&lt;/font&gt;" style="text;strokeColor=none;fillColor=none;align=left;verticalAlign=middle;spacingLeft=4;spacingRight=4;overflow=hidden;points=[[0,0.5],[1,0.5]];portConstraint=eastwest;rotatable=0;whiteSpace=wrap;html=1;" parent="4zg3qLO7-xDs-M1nTAMU-248" vertex="1">
          <mxGeometry y="90" width="190" height="50" as="geometry" />
        </mxCell>
        <mxCell id="4zg3qLO7-xDs-M1nTAMU-251" value="&lt;font style=&quot;font-size: 11px;&quot;&gt;&lt;font style=&quot;&quot;&gt;Step 4.&amp;nbsp;&lt;/font&gt;determine_load_operations_&lt;br&gt;from_tracking_directive&lt;/font&gt;" style="swimlane;fontStyle=0;childLayout=stackLayout;horizontal=1;startSize=30;horizontalStack=0;resizeParent=1;resizeParentMax=0;resizeLast=0;collapsible=1;marginBottom=0;whiteSpace=wrap;html=1;fillColor=#dae8fc;strokeColor=#6c8ebf;" parent="1" vertex="1">
          <mxGeometry x="880" y="-310" width="190" height="120" as="geometry" />
        </mxCell>
        <mxCell id="4zg3qLO7-xDs-M1nTAMU-252" value="&lt;font style=&quot;font-size: 10px;&quot;&gt;Reads if any tracked relations are declared&lt;/font&gt;" style="text;strokeColor=none;fillColor=none;align=left;verticalAlign=middle;spacingLeft=4;spacingRight=4;overflow=hidden;points=[[0,0.5],[1,0.5]];portConstraint=eastwest;rotatable=0;whiteSpace=wrap;html=1;" parent="4zg3qLO7-xDs-M1nTAMU-251" vertex="1">
          <mxGeometry y="30" width="190" height="30" as="geometry" />
        </mxCell>
        <mxCell id="4zg3qLO7-xDs-M1nTAMU-253" value="&lt;font style=&quot;font-size: 10px;&quot;&gt;Tags effectivity satellites with a relation-specific load operation&lt;/font&gt;" style="text;strokeColor=none;fillColor=none;align=left;verticalAlign=middle;spacingLeft=4;spacingRight=4;overflow=hidden;points=[[0,0.5],[1,0.5]];portConstraint=eastwest;rotatable=0;whiteSpace=wrap;html=1;" parent="4zg3qLO7-xDs-M1nTAMU-251" vertex="1">
          <mxGeometry y="60" width="190" height="60" as="geometry" />
        </mxCell>
        <mxCell id="4zg3qLO7-xDs-M1nTAMU-254" value="Step 5.&amp;nbsp;pull_satellite_load_&lt;br&gt;operations_into_links" style="swimlane;fontStyle=0;childLayout=stackLayout;horizontal=1;startSize=30;horizontalStack=0;resizeParent=1;resizeParentMax=0;resizeLast=0;collapsible=1;marginBottom=0;whiteSpace=wrap;html=1;fillColor=#dae8fc;strokeColor=#6c8ebf;" parent="1" vertex="1">
          <mxGeometry x="1120" y="-310" width="190" height="120" as="geometry" />
        </mxCell>
        <mxCell id="4zg3qLO7-xDs-M1nTAMU-255" value="&lt;font style=&quot;font-size: 10px;&quot;&gt;Reads child satellite tables&#39; load operations&lt;/font&gt;" style="text;strokeColor=none;fillColor=none;align=left;verticalAlign=middle;spacingLeft=4;spacingRight=4;overflow=hidden;points=[[0,0.5],[1,0.5]];portConstraint=eastwest;rotatable=0;whiteSpace=wrap;html=1;" parent="4zg3qLO7-xDs-M1nTAMU-254" vertex="1">
          <mxGeometry y="30" width="190" height="30" as="geometry" />
        </mxCell>
        <mxCell id="4zg3qLO7-xDs-M1nTAMU-256" value="&lt;font style=&quot;font-size: 10px;&quot;&gt; Generates load operations for link tables that are derived from the operations of their satellite tables&lt;/font&gt;" style="text;strokeColor=none;fillColor=none;align=left;verticalAlign=middle;spacingLeft=4;spacingRight=4;overflow=hidden;points=[[0,0.5],[1,0.5]];portConstraint=eastwest;rotatable=0;whiteSpace=wrap;html=1;" parent="4zg3qLO7-xDs-M1nTAMU-254" vertex="1">
          <mxGeometry y="60" width="190" height="60" as="geometry" />
        </mxCell>
        <mxCell id="4zg3qLO7-xDs-M1nTAMU-257" value="Step 6.&amp;nbsp;pull_hub_load_&lt;br&gt;operations_into_links" style="swimlane;fontStyle=0;childLayout=stackLayout;horizontal=1;startSize=30;horizontalStack=0;resizeParent=1;resizeParentMax=0;resizeLast=0;collapsible=1;marginBottom=0;whiteSpace=wrap;html=1;fillColor=#dae8fc;strokeColor=#6c8ebf;" parent="1" vertex="1">
          <mxGeometry x="500" y="-135" width="190" height="120" as="geometry" />
        </mxCell>
        <mxCell id="4zg3qLO7-xDs-M1nTAMU-258" value="&lt;font style=&quot;font-size: 10px;&quot;&gt;Reads parent hub definitions and their operations&lt;/font&gt;" style="text;strokeColor=none;fillColor=none;align=left;verticalAlign=middle;spacingLeft=4;spacingRight=4;overflow=hidden;points=[[0,0.5],[1,0.5]];portConstraint=eastwest;rotatable=0;whiteSpace=wrap;html=1;" parent="4zg3qLO7-xDs-M1nTAMU-257" vertex="1">
          <mxGeometry y="30" width="190" height="30" as="geometry" />
        </mxCell>
        <mxCell id="4zg3qLO7-xDs-M1nTAMU-259" value="&lt;font style=&quot;font-size: 10px;&quot;&gt; Determines load operations for links based on the common operations of parent hubs. If only * is found, the operation is set to /&lt;/font&gt;" style="text;strokeColor=none;fillColor=none;align=left;verticalAlign=middle;spacingLeft=4;spacingRight=4;overflow=hidden;points=[[0,0.5],[1,0.5]];portConstraint=eastwest;rotatable=0;whiteSpace=wrap;html=1;" parent="4zg3qLO7-xDs-M1nTAMU-257" vertex="1">
          <mxGeometry y="60" width="190" height="60" as="geometry" />
        </mxCell>
        <mxCell id="4zg3qLO7-xDs-M1nTAMU-260" value="Step 7.&amp;nbsp;pull_hub_load_&lt;br&gt;operations_into_links" style="swimlane;fontStyle=0;childLayout=stackLayout;horizontal=1;startSize=30;horizontalStack=0;resizeParent=1;resizeParentMax=0;resizeLast=0;collapsible=1;marginBottom=0;whiteSpace=wrap;html=1;fillColor=#dae8fc;strokeColor=#6c8ebf;" parent="1" vertex="1">
          <mxGeometry x="760" y="-135" width="190" height="120" as="geometry" />
        </mxCell>
        <mxCell id="4zg3qLO7-xDs-M1nTAMU-261" value="&lt;font style=&quot;font-size: 10px;&quot;&gt;Reads operations of the parent hubs&lt;/font&gt;" style="text;strokeColor=none;fillColor=none;align=left;verticalAlign=middle;spacingLeft=4;spacingRight=4;overflow=hidden;points=[[0,0.5],[1,0.5]];portConstraint=eastwest;rotatable=0;whiteSpace=wrap;html=1;" parent="4zg3qLO7-xDs-M1nTAMU-260" vertex="1">
          <mxGeometry y="30" width="190" height="30" as="geometry" />
        </mxCell>
        <mxCell id="4zg3qLO7-xDs-M1nTAMU-262" value="&lt;font style=&quot;font-size: 10px;&quot;&gt; Adds all operations of the parent hubs to the satellite and removes the * operation.&lt;/font&gt;" style="text;strokeColor=none;fillColor=none;align=left;verticalAlign=middle;spacingLeft=4;spacingRight=4;overflow=hidden;points=[[0,0.5],[1,0.5]];portConstraint=eastwest;rotatable=0;whiteSpace=wrap;html=1;" parent="4zg3qLO7-xDs-M1nTAMU-260" vertex="1">
          <mxGeometry y="60" width="190" height="60" as="geometry" />
        </mxCell>
        <mxCell id="4zg3qLO7-xDs-M1nTAMU-263" value="&lt;font style=&quot;font-size: 11px;&quot;&gt;Step 8.&amp;nbsp;determine_load_operations_&lt;br&gt;from_relations_in_mappings&lt;/font&gt;" style="swimlane;fontStyle=0;childLayout=stackLayout;horizontal=1;startSize=30;horizontalStack=0;resizeParent=1;resizeParentMax=0;resizeLast=0;collapsible=1;marginBottom=0;whiteSpace=wrap;html=1;fillColor=#dae8fc;strokeColor=#6c8ebf;" parent="1" vertex="1">
          <mxGeometry x="1010" y="-135" width="190" height="150" as="geometry">
            <mxRectangle x="970" y="885" width="220" height="40" as="alternateBounds" />
          </mxGeometry>
        </mxCell>
        <mxCell id="4zg3qLO7-xDs-M1nTAMU-264" value="&lt;font style=&quot;font-size: 10px;&quot;&gt;Ensures that all tables have at least one load operation defined and&amp;nbsp; Reads the final table definitions and their operations&lt;/font&gt;" style="text;strokeColor=none;fillColor=none;align=left;verticalAlign=middle;spacingLeft=4;spacingRight=4;overflow=hidden;points=[[0,0.5],[1,0.5]];portConstraint=eastwest;rotatable=0;whiteSpace=wrap;html=1;" parent="4zg3qLO7-xDs-M1nTAMU-263" vertex="1">
          <mxGeometry y="30" width="190" height="70" as="geometry" />
        </mxCell>
        <mxCell id="4zg3qLO7-xDs-M1nTAMU-265" value="&lt;font style=&quot;font-size: 10px;&quot;&gt;Gives a cross-check result to ensure every table has at least one valid load operation&lt;/font&gt;" style="text;strokeColor=none;fillColor=none;align=left;verticalAlign=middle;spacingLeft=4;spacingRight=4;overflow=hidden;points=[[0,0.5],[1,0.5]];portConstraint=eastwest;rotatable=0;whiteSpace=wrap;html=1;" parent="4zg3qLO7-xDs-M1nTAMU-263" vertex="1">
          <mxGeometry y="100" width="190" height="50" as="geometry" />
        </mxCell>
        <mxCell id="4zg3qLO7-xDs-M1nTAMU-267" value="&lt;font style=&quot;font-size: 24px;&quot;&gt;derive load operations&amp;nbsp;&lt;/font&gt;" style="text;html=1;strokeColor=none;fillColor=none;align=center;verticalAlign=middle;whiteSpace=wrap;rounded=0;" parent="1" vertex="1">
          <mxGeometry x="602.5" y="-370" width="505" height="30" as="geometry" />
        </mxCell>
        <mxCell id="4zg3qLO7-xDs-M1nTAMU-279" value="" style="endArrow=classic;html=1;rounded=0;exitX=0.648;exitY=1.02;exitDx=0;exitDy=0;exitPerimeter=0;" parent="1" source="4zg3qLO7-xDs-M1nTAMU-198" target="4zg3qLO7-xDs-M1nTAMU-228" edge="1">
          <mxGeometry width="50" height="50" relative="1" as="geometry">
            <mxPoint y="30" as="sourcePoint" />
            <mxPoint x="50" y="-20" as="targetPoint" />
          </mxGeometry>
        </mxCell>
        <mxCell id="4zg3qLO7-xDs-M1nTAMU-280" value="" style="endArrow=classic;html=1;rounded=0;entryX=0.5;entryY=0;entryDx=0;entryDy=0;exitX=0.571;exitY=1.029;exitDx=0;exitDy=0;exitPerimeter=0;" parent="1" source="4zg3qLO7-xDs-M1nTAMU-198" target="4zg3qLO7-xDs-M1nTAMU-230" edge="1">
          <mxGeometry width="50" height="50" relative="1" as="geometry">
            <mxPoint x="-200" y="-50" as="sourcePoint" />
            <mxPoint x="-150" y="-100" as="targetPoint" />
          </mxGeometry>
        </mxCell>
        <mxCell id="4zg3qLO7-xDs-M1nTAMU-281" value="" style="endArrow=classic;html=1;rounded=0;" parent="1" source="4zg3qLO7-xDs-M1nTAMU-202" target="4zg3qLO7-xDs-M1nTAMU-227" edge="1">
          <mxGeometry width="50" height="50" relative="1" as="geometry">
            <mxPoint x="-418" y="30" as="sourcePoint" />
            <mxPoint x="-368" y="-20" as="targetPoint" />
          </mxGeometry>
        </mxCell>
        <mxCell id="4zg3qLO7-xDs-M1nTAMU-282" value="" style="endArrow=classic;html=1;rounded=0;exitX=0.46;exitY=0.968;exitDx=0;exitDy=0;exitPerimeter=0;" parent="1" source="4zg3qLO7-xDs-M1nTAMU-202" target="4zg3qLO7-xDs-M1nTAMU-228" edge="1">
          <mxGeometry width="50" height="50" relative="1" as="geometry">
            <mxPoint x="-347" y="-40" as="sourcePoint" />
            <mxPoint x="-297" y="-90" as="targetPoint" />
          </mxGeometry>
        </mxCell>
        <mxCell id="4zg3qLO7-xDs-M1nTAMU-285" value="" style="curved=1;endArrow=classic;html=1;rounded=0;entryX=0.786;entryY=0.057;entryDx=0;entryDy=0;entryPerimeter=0;exitX=0.174;exitY=1.002;exitDx=0;exitDy=0;exitPerimeter=0;" parent="1" source="4zg3qLO7-xDs-M1nTAMU-266" target="4zg3qLO7-xDs-M1nTAMU-229" edge="1">
          <mxGeometry width="50" height="50" relative="1" as="geometry">
            <mxPoint x="490" y="139" as="sourcePoint" />
            <mxPoint x="540" y="89" as="targetPoint" />
            <Array as="points">
              <mxPoint x="457" y="70" />
              <mxPoint x="370" y="160" />
              <mxPoint x="280" y="200" />
            </Array>
          </mxGeometry>
        </mxCell>
        <mxCell id="4zg3qLO7-xDs-M1nTAMU-291" value="collect_field_properties" style="swimlane;fontStyle=0;childLayout=stackLayout;horizontal=1;startSize=30;horizontalStack=0;resizeParent=1;resizeParentMax=0;resizeLast=0;collapsible=1;marginBottom=0;whiteSpace=wrap;fillColor=#CCFFFF;" parent="1" vertex="1">
          <mxGeometry x="-1050" y="-335" width="210" height="120" as="geometry" />
        </mxCell>
        <mxCell id="4zg3qLO7-xDs-M1nTAMU-292" value="&lt;font style=&quot;font-size: 10px;&quot;&gt;collect the properties of each field in the model&lt;/font&gt;" style="text;strokeColor=none;fillColor=#CCFFFF;align=left;verticalAlign=middle;spacingLeft=4;spacingRight=4;overflow=hidden;points=[[0,0.5],[1,0.5]];portConstraint=eastwest;rotatable=0;whiteSpace=wrap;html=1;" parent="4zg3qLO7-xDs-M1nTAMU-291" vertex="1">
          <mxGeometry y="30" width="210" height="30" as="geometry" />
        </mxCell>
        <mxCell id="4zg3qLO7-xDs-M1nTAMU-293" value="&lt;font style=&quot;font-size: 10px;&quot;&gt;reads dvpd_object containing field definitions&lt;/font&gt;" style="text;strokeColor=none;fillColor=#CCFFFF;align=left;verticalAlign=middle;spacingLeft=4;spacingRight=4;overflow=hidden;points=[[0,0.5],[1,0.5]];portConstraint=eastwest;rotatable=0;whiteSpace=wrap;html=1;" parent="4zg3qLO7-xDs-M1nTAMU-291" vertex="1">
          <mxGeometry y="60" width="210" height="30" as="geometry" />
        </mxCell>
        <mxCell id="4zg3qLO7-xDs-M1nTAMU-294" value="&lt;font style=&quot;font-size: 10px;&quot;&gt;updates g_field_dict with the properties of each fields&lt;/font&gt;" style="text;strokeColor=none;fillColor=#CCFFFF;align=left;verticalAlign=middle;spacingLeft=4;spacingRight=4;overflow=hidden;points=[[0,0.5],[1,0.5]];portConstraint=eastwest;rotatable=0;whiteSpace=wrap;html=1;" parent="4zg3qLO7-xDs-M1nTAMU-291" vertex="1">
          <mxGeometry y="90" width="210" height="30" as="geometry" />
        </mxCell>
        <mxCell id="4zg3qLO7-xDs-M1nTAMU-295" value="" style="endArrow=classic;html=1;rounded=0;exitX=0.302;exitY=0.959;exitDx=0;exitDy=0;exitPerimeter=0;" parent="1" source="4zg3qLO7-xDs-M1nTAMU-294" target="4zg3qLO7-xDs-M1nTAMU-204" edge="1">
          <mxGeometry width="50" height="50" relative="1" as="geometry">
            <mxPoint x="-1230" y="-90" as="sourcePoint" />
            <mxPoint x="-1180" y="-140" as="targetPoint" />
          </mxGeometry>
        </mxCell>
        <mxCell id="4zg3qLO7-xDs-M1nTAMU-296" value="collect_table_properties" style="swimlane;fontStyle=0;childLayout=stackLayout;horizontal=1;startSize=30;horizontalStack=0;resizeParent=1;resizeParentMax=0;resizeLast=0;collapsible=1;marginBottom=0;whiteSpace=wrap;fillColor=#D5E8D4;" parent="1" vertex="1">
          <mxGeometry x="-788" y="-560" width="210" height="120" as="geometry" />
        </mxCell>
        <mxCell id="4zg3qLO7-xDs-M1nTAMU-297" value="&lt;font style=&quot;font-size: 10px;&quot;&gt;collect and cleanse all necessary table properties&lt;/font&gt;" style="text;strokeColor=none;fillColor=#D5E8D4;align=left;verticalAlign=middle;spacingLeft=4;spacingRight=4;overflow=hidden;points=[[0,0.5],[1,0.5]];portConstraint=eastwest;rotatable=0;whiteSpace=wrap;html=1;" parent="4zg3qLO7-xDs-M1nTAMU-296" vertex="1">
          <mxGeometry y="30" width="210" height="30" as="geometry" />
        </mxCell>
        <mxCell id="4zg3qLO7-xDs-M1nTAMU-298" value="&lt;font style=&quot;font-size: 10px;&quot;&gt;reads dvpd_object containing table definitions&lt;/font&gt;" style="text;strokeColor=none;fillColor=#D5E8D4;align=left;verticalAlign=middle;spacingLeft=4;spacingRight=4;overflow=hidden;points=[[0,0.5],[1,0.5]];portConstraint=eastwest;rotatable=0;whiteSpace=wrap;html=1;" parent="4zg3qLO7-xDs-M1nTAMU-296" vertex="1">
          <mxGeometry y="60" width="210" height="30" as="geometry" />
        </mxCell>
        <mxCell id="4zg3qLO7-xDs-M1nTAMU-299" value="&lt;font style=&quot;font-size: 10px;&quot;&gt;updates g_table_dict with the transformed table properties&lt;/font&gt;" style="text;strokeColor=none;fillColor=#D5E8D4;align=left;verticalAlign=middle;spacingLeft=4;spacingRight=4;overflow=hidden;points=[[0,0.5],[1,0.5]];portConstraint=eastwest;rotatable=0;whiteSpace=wrap;html=1;" parent="4zg3qLO7-xDs-M1nTAMU-296" vertex="1">
          <mxGeometry y="90" width="210" height="30" as="geometry" />
        </mxCell>
        <mxCell id="4zg3qLO7-xDs-M1nTAMU-300" value="" style="endArrow=classic;html=1;rounded=0;exitX=0.46;exitY=1.024;exitDx=0;exitDy=0;exitPerimeter=0;" parent="1" source="4zg3qLO7-xDs-M1nTAMU-299" target="4zg3qLO7-xDs-M1nTAMU-191" edge="1">
          <mxGeometry width="50" height="50" relative="1" as="geometry">
            <mxPoint x="-940" y="-390" as="sourcePoint" />
            <mxPoint x="-890" y="-440" as="targetPoint" />
          </mxGeometry>
        </mxCell>
        <mxCell id="4zg3qLO7-xDs-M1nTAMU-301" value="create_columns_&#xa;from_field_mapping" style="swimlane;fontStyle=0;childLayout=stackLayout;horizontal=1;startSize=30;horizontalStack=0;resizeParent=1;resizeParentMax=0;resizeLast=0;collapsible=1;marginBottom=0;whiteSpace=wrap;strokeColor=default;fillColor=#E6E6E6;gradientColor=none;swimlaneFillColor=none;" parent="1" vertex="1">
          <mxGeometry x="-900" y="-135" width="170" height="130" as="geometry" />
        </mxCell>
        <mxCell id="4zg3qLO7-xDs-M1nTAMU-302" value="&lt;font style=&quot;font-size: 10px;&quot;&gt;adds data column entries to all tables the field is mapped to&lt;/font&gt;" style="text;strokeColor=none;fillColor=#E6E6E6;align=left;verticalAlign=middle;spacingLeft=4;spacingRight=4;overflow=hidden;points=[[0,0.5],[1,0.5]];portConstraint=eastwest;rotatable=0;whiteSpace=wrap;html=1;" parent="4zg3qLO7-xDs-M1nTAMU-301" vertex="1">
          <mxGeometry y="30" width="170" height="30" as="geometry" />
        </mxCell>
        <mxCell id="4zg3qLO7-xDs-M1nTAMU-303" value="&lt;font style=&quot;font-size: 10px;&quot;&gt;reads field_entry containg field details&lt;/font&gt;" style="text;strokeColor=none;fillColor=#E6E6E6;align=left;verticalAlign=middle;spacingLeft=4;spacingRight=4;overflow=hidden;points=[[0,0.5],[1,0.5]];portConstraint=eastwest;rotatable=0;whiteSpace=wrap;html=1;" parent="4zg3qLO7-xDs-M1nTAMU-301" vertex="1">
          <mxGeometry y="60" width="170" height="30" as="geometry" />
        </mxCell>
        <mxCell id="4zg3qLO7-xDs-M1nTAMU-304" value="&lt;font style=&quot;font-size: 10px;&quot;&gt;updates g_table_dict with column mappings&lt;/font&gt;" style="text;strokeColor=none;fillColor=#E6E6E6;align=left;verticalAlign=middle;spacingLeft=4;spacingRight=4;overflow=hidden;points=[[0,0.5],[1,0.5]];portConstraint=eastwest;rotatable=0;whiteSpace=wrap;html=1;" parent="4zg3qLO7-xDs-M1nTAMU-301" vertex="1">
          <mxGeometry y="90" width="170" height="40" as="geometry" />
        </mxCell>
        <mxCell id="4zg3qLO7-xDs-M1nTAMU-305" value="" style="endArrow=none;html=1;rounded=1;exitX=0.588;exitY=0;exitDx=0;exitDy=0;exitPerimeter=0;endFill=0;startArrow=classic;startFill=1;edgeStyle=orthogonalEdgeStyle;curved=0;" parent="1" source="4zg3qLO7-xDs-M1nTAMU-301" edge="1" target="4zg3qLO7-xDs-M1nTAMU-291">
          <mxGeometry width="50" height="50" relative="1" as="geometry">
            <mxPoint x="-1230" y="-167.5" as="sourcePoint" />
            <mxPoint x="-1180" y="-217.5" as="targetPoint" />
          </mxGeometry>
        </mxCell>
        <mxCell id="4zg3qLO7-xDs-M1nTAMU-306" style="edgeStyle=none;shape=connector;rounded=0;orthogonalLoop=1;jettySize=auto;html=1;entryX=0.223;entryY=0.1;entryDx=0;entryDy=0;entryPerimeter=0;labelBackgroundColor=default;strokeColor=default;align=center;verticalAlign=middle;fontFamily=Helvetica;fontSize=11;fontColor=default;startArrow=none;startFill=0;endArrow=classic;endFill=1;exitX=0.75;exitY=1;exitDx=0;exitDy=0;" parent="1" source="4zg3qLO7-xDs-M1nTAMU-301" target="4zg3qLO7-xDs-M1nTAMU-230" edge="1">
          <mxGeometry relative="1" as="geometry" />
        </mxCell>
        <mxCell id="4zg3qLO7-xDs-M1nTAMU-308" value="" style="endArrow=classic;html=1;rounded=1;labelBackgroundColor=default;strokeColor=default;align=center;verticalAlign=middle;fontFamily=Helvetica;fontSize=11;fontColor=default;shape=connector;edgeStyle=orthogonalEdgeStyle;curved=0;" parent="1" source="4zg3qLO7-xDs-M1nTAMU-97" target="4zg3qLO7-xDs-M1nTAMU-296" edge="1">
          <mxGeometry width="50" height="50" relative="1" as="geometry">
            <mxPoint x="-850" y="-430" as="sourcePoint" />
            <mxPoint x="-800" y="-480" as="targetPoint" />
            <Array as="points">
              <mxPoint x="-380" y="-620" />
              <mxPoint x="-683" y="-620" />
            </Array>
          </mxGeometry>
        </mxCell>
        <mxCell id="4zg3qLO7-xDs-M1nTAMU-309" value="" style="endArrow=classic;html=1;rounded=1;labelBackgroundColor=default;strokeColor=default;align=center;verticalAlign=middle;fontFamily=Helvetica;fontSize=11;fontColor=default;shape=connector;edgeStyle=orthogonalEdgeStyle;entryX=0.5;entryY=0;entryDx=0;entryDy=0;curved=0;" parent="1" source="4zg3qLO7-xDs-M1nTAMU-97" target="4zg3qLO7-xDs-M1nTAMU-291" edge="1">
          <mxGeometry width="50" height="50" relative="1" as="geometry">
            <mxPoint x="-1050" y="-730" as="sourcePoint" />
            <mxPoint x="-895" y="-555" as="targetPoint" />
            <Array as="points">
              <mxPoint x="-410" y="-650" />
              <mxPoint x="-950" y="-650" />
              <mxPoint x="-950" y="-335" />
            </Array>
          </mxGeometry>
        </mxCell>
        <mxCell id="4zg3qLO7-xDs-M1nTAMU-310" value="" style="endArrow=classic;html=1;rounded=1;labelBackgroundColor=default;strokeColor=default;align=center;verticalAlign=middle;fontFamily=Helvetica;fontSize=11;fontColor=default;shape=connector;edgeStyle=orthogonalEdgeStyle;" parent="1" source="4zg3qLO7-xDs-M1nTAMU-97" target="4zg3qLO7-xDs-M1nTAMU-195" edge="1">
          <mxGeometry width="50" height="50" relative="1" as="geometry">
            <mxPoint x="-895" y="-820" as="sourcePoint" />
            <mxPoint x="-1155" y="-327" as="targetPoint" />
            <Array as="points">
              <mxPoint x="-363" y="-615" />
              <mxPoint x="-375" y="-615" />
            </Array>
          </mxGeometry>
        </mxCell>
        <mxCell id="4zg3qLO7-xDs-M1nTAMU-311" value="" style="endArrow=classic;html=1;rounded=0;labelBackgroundColor=default;strokeColor=default;align=center;verticalAlign=middle;fontFamily=Helvetica;fontSize=11;fontColor=default;shape=connector;edgeStyle=none;entryX=0.5;entryY=0;entryDx=0;entryDy=0;" parent="1" target="4zg3qLO7-xDs-M1nTAMU-111" edge="1">
          <mxGeometry width="50" height="50" relative="1" as="geometry">
            <mxPoint x="-460" y="830" as="sourcePoint" />
            <mxPoint x="-443" y="890" as="targetPoint" />
          </mxGeometry>
        </mxCell>
        <mxCell id="4zg3qLO7-xDs-M1nTAMU-312" value="" style="endArrow=classic;html=1;rounded=1;labelBackgroundColor=default;strokeColor=default;align=center;verticalAlign=middle;fontFamily=Helvetica;fontSize=11;fontColor=default;shape=connector;edgeStyle=orthogonalEdgeStyle;entryX=0.463;entryY=-0.056;entryDx=0;entryDy=0;entryPerimeter=0;curved=0;" parent="1" source="4zg3qLO7-xDs-M1nTAMU-105" target="4zg3qLO7-xDs-M1nTAMU-115" edge="1">
          <mxGeometry width="50" height="50" relative="1" as="geometry">
            <mxPoint x="-442" y="830" as="sourcePoint" />
            <mxPoint x="-440" y="1100" as="targetPoint" />
            <Array as="points">
              <mxPoint x="-493" y="910" />
              <mxPoint x="-228" y="910" />
            </Array>
          </mxGeometry>
        </mxCell>
        <mxCell id="4zg3qLO7-xDs-M1nTAMU-313" value="" style="endArrow=classic;html=1;rounded=0;labelBackgroundColor=default;strokeColor=default;align=center;verticalAlign=middle;fontFamily=Helvetica;fontSize=11;fontColor=default;shape=connector;edgeStyle=none;entryX=0.5;entryY=0;entryDx=0;entryDy=0;exitX=0.5;exitY=1;exitDx=0;exitDy=0;" parent="1" source="4zg3qLO7-xDs-M1nTAMU-111" target="4zg3qLO7-xDs-M1nTAMU-203" edge="1">
          <mxGeometry width="50" height="50" relative="1" as="geometry">
            <mxPoint x="-417.5" y="1250" as="sourcePoint" />
            <mxPoint x="-416.5" y="1520" as="targetPoint" />
          </mxGeometry>
        </mxCell>
        <mxCell id="4zg3qLO7-xDs-M1nTAMU-314" value="" style="endArrow=classic;html=1;rounded=1;labelBackgroundColor=default;strokeColor=default;align=center;verticalAlign=middle;fontFamily=Helvetica;fontSize=11;fontColor=default;shape=connector;edgeStyle=orthogonalEdgeStyle;entryX=0.5;entryY=0;entryDx=0;entryDy=0;curved=0;" parent="1" source="4zg3qLO7-xDs-M1nTAMU-117" target="4zg3qLO7-xDs-M1nTAMU-121" edge="1">
          <mxGeometry width="50" height="50" relative="1" as="geometry">
            <mxPoint x="-180" y="1190" as="sourcePoint" />
            <mxPoint x="-222" y="1370" as="targetPoint" />
            <Array as="points">
              <mxPoint x="-210" y="1250" />
              <mxPoint x="1" y="1250" />
            </Array>
          </mxGeometry>
        </mxCell>
        <mxCell id="4zg3qLO7-xDs-M1nTAMU-315" value="" style="endArrow=classic;html=1;rounded=1;labelBackgroundColor=default;strokeColor=default;align=center;verticalAlign=middle;fontFamily=Helvetica;fontSize=11;fontColor=default;shape=connector;edgeStyle=orthogonalEdgeStyle;curved=0;" parent="1" source="4zg3qLO7-xDs-M1nTAMU-117" target="4zg3qLO7-xDs-M1nTAMU-124" edge="1">
          <mxGeometry width="50" height="50" relative="1" as="geometry">
            <mxPoint x="-166" y="1200" as="sourcePoint" />
            <mxPoint x="-160" y="1310" as="targetPoint" />
            <Array as="points">
              <mxPoint x="-190" y="1250" />
              <mxPoint x="230" y="1250" />
            </Array>
          </mxGeometry>
        </mxCell>
        <mxCell id="4zg3qLO7-xDs-M1nTAMU-317" value="" style="endArrow=classic;html=1;rounded=0;labelBackgroundColor=default;strokeColor=default;align=center;verticalAlign=middle;fontFamily=Helvetica;fontSize=11;fontColor=default;shape=connector;edgeStyle=none;entryX=0.5;entryY=0;entryDx=0;entryDy=0;exitX=0.453;exitY=1.026;exitDx=0;exitDy=0;exitPerimeter=0;" parent="1" source="4zg3qLO7-xDs-M1nTAMU-117" target="4zg3qLO7-xDs-M1nTAMU-118" edge="1">
          <mxGeometry width="50" height="50" relative="1" as="geometry">
            <mxPoint x="-230" y="1200" as="sourcePoint" />
            <mxPoint x="-98" y="1392" as="targetPoint" />
          </mxGeometry>
        </mxCell>
        <mxCell id="4zg3qLO7-xDs-M1nTAMU-318" value="" style="endArrow=classic;html=1;rounded=1;labelBackgroundColor=default;strokeColor=default;align=center;verticalAlign=middle;fontFamily=Helvetica;fontSize=11;fontColor=default;shape=connector;edgeStyle=orthogonalEdgeStyle;entryX=0.75;entryY=0;entryDx=0;entryDy=0;exitX=0.895;exitY=0.994;exitDx=0;exitDy=0;exitPerimeter=0;curved=0;" parent="1" source="4zg3qLO7-xDs-M1nTAMU-100" target="4zg3qLO7-xDs-M1nTAMU-127" edge="1">
          <mxGeometry width="50" height="50" relative="1" as="geometry">
            <mxPoint x="-830" y="-830" as="sourcePoint" />
            <mxPoint x="-490" y="-320" as="targetPoint" />
          </mxGeometry>
        </mxCell>
        <mxCell id="4zg3qLO7-xDs-M1nTAMU-319" value="" style="endArrow=classic;html=1;rounded=0;labelBackgroundColor=default;strokeColor=default;align=center;verticalAlign=middle;fontFamily=Helvetica;fontSize=11;fontColor=default;shape=connector;edgeStyle=none;entryX=0.541;entryY=-0.025;entryDx=0;entryDy=0;exitX=0.25;exitY=1;exitDx=0;exitDy=0;entryPerimeter=0;" parent="1" source="4zg3qLO7-xDs-M1nTAMU-102" target="4zg3qLO7-xDs-M1nTAMU-133" edge="1">
          <mxGeometry width="50" height="50" relative="1" as="geometry">
            <mxPoint x="-614" y="1190" as="sourcePoint" />
            <mxPoint x="-646" y="1660" as="targetPoint" />
          </mxGeometry>
        </mxCell>
        <mxCell id="4zg3qLO7-xDs-M1nTAMU-323" value="" style="endArrow=classic;html=1;rounded=0;labelBackgroundColor=default;strokeColor=default;align=center;verticalAlign=middle;fontFamily=Helvetica;fontSize=11;fontColor=default;shape=connector;edgeStyle=none;" parent="1" edge="1">
          <mxGeometry width="50" height="50" relative="1" as="geometry">
            <mxPoint x="-1100" y="450" as="sourcePoint" />
            <mxPoint x="-1100" y="570" as="targetPoint" />
          </mxGeometry>
        </mxCell>
        <mxCell id="4zg3qLO7-xDs-M1nTAMU-324" value="" style="endArrow=classic;html=1;rounded=0;labelBackgroundColor=default;strokeColor=default;align=center;verticalAlign=middle;fontFamily=Helvetica;fontSize=11;fontColor=default;shape=connector;edgeStyle=none;" parent="1" edge="1">
          <mxGeometry width="50" height="50" relative="1" as="geometry">
            <mxPoint x="-1020.0000000000001" y="450" as="sourcePoint" />
            <mxPoint x="-1020.0000000000001" y="570" as="targetPoint" />
          </mxGeometry>
        </mxCell>
        <mxCell id="4zg3qLO7-xDs-M1nTAMU-325" value="" style="endArrow=classic;html=1;rounded=0;labelBackgroundColor=default;strokeColor=default;align=center;verticalAlign=middle;fontFamily=Helvetica;fontSize=11;fontColor=default;shape=connector;edgeStyle=none;" parent="1" edge="1">
          <mxGeometry width="50" height="50" relative="1" as="geometry">
            <mxPoint x="-943.08" y="450" as="sourcePoint" />
            <mxPoint x="-943.08" y="570" as="targetPoint" />
          </mxGeometry>
        </mxCell>
        <mxCell id="4zg3qLO7-xDs-M1nTAMU-326" value="" style="endArrow=classic;html=1;rounded=0;labelBackgroundColor=default;strokeColor=default;align=center;verticalAlign=middle;fontFamily=Helvetica;fontSize=11;fontColor=default;shape=connector;edgeStyle=none;" parent="1" edge="1">
          <mxGeometry width="50" height="50" relative="1" as="geometry">
            <mxPoint x="-860.0000000000001" y="450" as="sourcePoint" />
            <mxPoint x="-860.0000000000001" y="570" as="targetPoint" />
          </mxGeometry>
        </mxCell>
        <mxCell id="4zg3qLO7-xDs-M1nTAMU-327" value="" style="endArrow=classic;html=1;rounded=0;labelBackgroundColor=default;strokeColor=default;align=center;verticalAlign=middle;fontFamily=Helvetica;fontSize=11;fontColor=default;shape=connector;edgeStyle=none;" parent="1" edge="1">
          <mxGeometry width="50" height="50" relative="1" as="geometry">
            <mxPoint x="-780" y="450" as="sourcePoint" />
            <mxPoint x="-780" y="570" as="targetPoint" />
          </mxGeometry>
        </mxCell>
        <mxCell id="4zg3qLO7-xDs-M1nTAMU-328" value="" style="endArrow=classic;html=1;rounded=0;labelBackgroundColor=default;strokeColor=default;align=center;verticalAlign=middle;fontFamily=Helvetica;fontSize=11;fontColor=default;shape=connector;edgeStyle=none;" parent="1" edge="1">
          <mxGeometry width="50" height="50" relative="1" as="geometry">
            <mxPoint x="-700.83" y="450" as="sourcePoint" />
            <mxPoint x="-700.83" y="570" as="targetPoint" />
          </mxGeometry>
        </mxCell>
        <mxCell id="4zg3qLO7-xDs-M1nTAMU-329" value="" style="endArrow=classic;html=1;rounded=0;labelBackgroundColor=default;strokeColor=default;align=center;verticalAlign=middle;fontFamily=Helvetica;fontSize=11;fontColor=default;shape=connector;edgeStyle=none;" parent="1" edge="1">
          <mxGeometry width="50" height="50" relative="1" as="geometry">
            <mxPoint x="-620.83" y="450" as="sourcePoint" />
            <mxPoint x="-620.83" y="570" as="targetPoint" />
          </mxGeometry>
        </mxCell>
        <mxCell id="4zg3qLO7-xDs-M1nTAMU-330" value="" style="endArrow=classic;html=1;rounded=0;labelBackgroundColor=default;strokeColor=default;align=center;verticalAlign=middle;fontFamily=Helvetica;fontSize=11;fontColor=default;shape=connector;edgeStyle=none;" parent="1" edge="1">
          <mxGeometry width="50" height="50" relative="1" as="geometry">
            <mxPoint x="-540.83" y="450" as="sourcePoint" />
            <mxPoint x="-540.83" y="570" as="targetPoint" />
          </mxGeometry>
        </mxCell>
        <mxCell id="4zg3qLO7-xDs-M1nTAMU-331" value="" style="endArrow=classic;html=1;rounded=0;labelBackgroundColor=default;strokeColor=default;align=center;verticalAlign=middle;fontFamily=Helvetica;fontSize=11;fontColor=default;shape=connector;edgeStyle=none;" parent="1" edge="1">
          <mxGeometry width="50" height="50" relative="1" as="geometry">
            <mxPoint x="-460.83000000000004" y="450" as="sourcePoint" />
            <mxPoint x="-460.83000000000004" y="570" as="targetPoint" />
          </mxGeometry>
        </mxCell>
        <mxCell id="4zg3qLO7-xDs-M1nTAMU-332" value="" style="endArrow=classic;html=1;rounded=0;labelBackgroundColor=default;strokeColor=default;align=center;verticalAlign=middle;fontFamily=Helvetica;fontSize=11;fontColor=default;shape=connector;edgeStyle=none;" parent="1" edge="1">
          <mxGeometry width="50" height="50" relative="1" as="geometry">
            <mxPoint x="-380.83000000000015" y="450" as="sourcePoint" />
            <mxPoint x="-380.83000000000015" y="570" as="targetPoint" />
          </mxGeometry>
        </mxCell>
        <mxCell id="4zg3qLO7-xDs-M1nTAMU-333" value="" style="endArrow=classic;html=1;rounded=0;labelBackgroundColor=default;strokeColor=default;align=center;verticalAlign=middle;fontFamily=Helvetica;fontSize=11;fontColor=default;shape=connector;edgeStyle=none;" parent="1" edge="1">
          <mxGeometry width="50" height="50" relative="1" as="geometry">
            <mxPoint x="-303.9100000000001" y="450" as="sourcePoint" />
            <mxPoint x="-303.9100000000001" y="570" as="targetPoint" />
          </mxGeometry>
        </mxCell>
        <mxCell id="4zg3qLO7-xDs-M1nTAMU-334" value="" style="endArrow=classic;html=1;rounded=0;labelBackgroundColor=default;strokeColor=default;align=center;verticalAlign=middle;fontFamily=Helvetica;fontSize=11;fontColor=default;shape=connector;edgeStyle=none;" parent="1" edge="1">
          <mxGeometry width="50" height="50" relative="1" as="geometry">
            <mxPoint x="-220.83000000000015" y="450" as="sourcePoint" />
            <mxPoint x="-220.83000000000015" y="570" as="targetPoint" />
          </mxGeometry>
        </mxCell>
        <mxCell id="4zg3qLO7-xDs-M1nTAMU-336" value="" style="endArrow=classic;html=1;rounded=0;labelBackgroundColor=default;strokeColor=default;align=center;verticalAlign=middle;fontFamily=Helvetica;fontSize=11;fontColor=default;shape=connector;edgeStyle=none;" parent="1" edge="1">
          <mxGeometry width="50" height="50" relative="1" as="geometry">
            <mxPoint x="-60" y="450" as="sourcePoint" />
            <mxPoint x="-60" y="570" as="targetPoint" />
          </mxGeometry>
        </mxCell>
        <mxCell id="4zg3qLO7-xDs-M1nTAMU-337" value="" style="endArrow=classic;html=1;rounded=0;labelBackgroundColor=default;strokeColor=default;align=center;verticalAlign=middle;fontFamily=Helvetica;fontSize=11;fontColor=default;shape=connector;edgeStyle=none;" parent="1" edge="1">
          <mxGeometry width="50" height="50" relative="1" as="geometry">
            <mxPoint x="20" y="450" as="sourcePoint" />
            <mxPoint x="20" y="570" as="targetPoint" />
          </mxGeometry>
        </mxCell>
        <mxCell id="4zg3qLO7-xDs-M1nTAMU-338" value="" style="endArrow=classic;html=1;rounded=0;labelBackgroundColor=default;strokeColor=default;align=center;verticalAlign=middle;fontFamily=Helvetica;fontSize=11;fontColor=default;shape=connector;edgeStyle=none;" parent="1" edge="1">
          <mxGeometry width="50" height="50" relative="1" as="geometry">
            <mxPoint x="100" y="450" as="sourcePoint" />
            <mxPoint x="100" y="570" as="targetPoint" />
          </mxGeometry>
        </mxCell>
        <mxCell id="4zg3qLO7-xDs-M1nTAMU-339" value="" style="endArrow=classic;html=1;rounded=0;labelBackgroundColor=default;strokeColor=default;align=center;verticalAlign=middle;fontFamily=Helvetica;fontSize=11;fontColor=default;shape=connector;edgeStyle=none;" parent="1" edge="1">
          <mxGeometry width="50" height="50" relative="1" as="geometry">
            <mxPoint x="180" y="450" as="sourcePoint" />
            <mxPoint x="180" y="570" as="targetPoint" />
          </mxGeometry>
        </mxCell>
        <mxCell id="4zg3qLO7-xDs-M1nTAMU-340" value="" style="endArrow=classic;html=1;rounded=0;labelBackgroundColor=default;strokeColor=default;align=center;verticalAlign=middle;fontFamily=Helvetica;fontSize=11;fontColor=default;shape=connector;edgeStyle=none;" parent="1" edge="1">
          <mxGeometry width="50" height="50" relative="1" as="geometry">
            <mxPoint x="259.9999999999999" y="450" as="sourcePoint" />
            <mxPoint x="259.9999999999999" y="570" as="targetPoint" />
          </mxGeometry>
        </mxCell>
        <mxCell id="4zg3qLO7-xDs-M1nTAMU-341" value="" style="endArrow=classic;html=1;rounded=0;labelBackgroundColor=default;strokeColor=default;align=center;verticalAlign=middle;fontFamily=Helvetica;fontSize=11;fontColor=default;shape=connector;edgeStyle=none;" parent="1" edge="1">
          <mxGeometry width="50" height="50" relative="1" as="geometry">
            <mxPoint x="336.91999999999996" y="450" as="sourcePoint" />
            <mxPoint x="336.91999999999996" y="570" as="targetPoint" />
          </mxGeometry>
        </mxCell>
        <mxCell id="4zg3qLO7-xDs-M1nTAMU-342" value="" style="endArrow=classic;html=1;rounded=0;labelBackgroundColor=default;strokeColor=default;align=center;verticalAlign=middle;fontFamily=Helvetica;fontSize=11;fontColor=default;shape=connector;edgeStyle=none;" parent="1" edge="1">
          <mxGeometry width="50" height="50" relative="1" as="geometry">
            <mxPoint x="419.9999999999999" y="450" as="sourcePoint" />
            <mxPoint x="419.9999999999999" y="570" as="targetPoint" />
          </mxGeometry>
        </mxCell>
        <mxCell id="4zg3qLO7-xDs-M1nTAMU-343" value="" style="endArrow=classic;html=1;rounded=0;labelBackgroundColor=default;strokeColor=default;align=center;verticalAlign=middle;fontFamily=Helvetica;fontSize=11;fontColor=default;shape=connector;edgeStyle=none;" parent="1" edge="1">
          <mxGeometry width="50" height="50" relative="1" as="geometry">
            <mxPoint x="500" y="450" as="sourcePoint" />
            <mxPoint x="500" y="570" as="targetPoint" />
          </mxGeometry>
        </mxCell>
        <mxCell id="4zg3qLO7-xDs-M1nTAMU-344" value="" style="endArrow=classic;html=1;rounded=0;labelBackgroundColor=default;strokeColor=default;align=center;verticalAlign=middle;fontFamily=Helvetica;fontSize=11;fontColor=default;shape=connector;edgeStyle=none;" parent="1" edge="1">
          <mxGeometry width="50" height="50" relative="1" as="geometry">
            <mxPoint x="580" y="450" as="sourcePoint" />
            <mxPoint x="580" y="570" as="targetPoint" />
          </mxGeometry>
        </mxCell>
        <mxCell id="4zg3qLO7-xDs-M1nTAMU-345" value="" style="endArrow=classic;html=1;rounded=0;labelBackgroundColor=default;strokeColor=default;align=center;verticalAlign=middle;fontFamily=Helvetica;fontSize=11;fontColor=default;shape=connector;edgeStyle=none;" parent="1" edge="1">
          <mxGeometry width="50" height="50" relative="1" as="geometry">
            <mxPoint x="660" y="450" as="sourcePoint" />
            <mxPoint x="660" y="570" as="targetPoint" />
          </mxGeometry>
        </mxCell>
        <mxCell id="4zg3qLO7-xDs-M1nTAMU-346" value="" style="endArrow=classic;html=1;rounded=0;labelBackgroundColor=default;strokeColor=default;align=center;verticalAlign=middle;fontFamily=Helvetica;fontSize=11;fontColor=default;shape=connector;edgeStyle=none;" parent="1" edge="1">
          <mxGeometry width="50" height="50" relative="1" as="geometry">
            <mxPoint x="740" y="450" as="sourcePoint" />
            <mxPoint x="740" y="570" as="targetPoint" />
          </mxGeometry>
        </mxCell>
        <mxCell id="4zg3qLO7-xDs-M1nTAMU-347" value="" style="endArrow=classic;html=1;rounded=0;labelBackgroundColor=default;strokeColor=default;align=center;verticalAlign=middle;fontFamily=Helvetica;fontSize=11;fontColor=default;shape=connector;edgeStyle=none;" parent="1" edge="1">
          <mxGeometry width="50" height="50" relative="1" as="geometry">
            <mxPoint x="820" y="450" as="sourcePoint" />
            <mxPoint x="820" y="570" as="targetPoint" />
          </mxGeometry>
        </mxCell>
        <mxCell id="4zg3qLO7-xDs-M1nTAMU-348" value="" style="endArrow=classic;html=1;rounded=0;labelBackgroundColor=default;strokeColor=default;align=center;verticalAlign=middle;fontFamily=Helvetica;fontSize=11;fontColor=default;shape=connector;edgeStyle=none;" parent="1" edge="1">
          <mxGeometry width="50" height="50" relative="1" as="geometry">
            <mxPoint x="900" y="450" as="sourcePoint" />
            <mxPoint x="900" y="570" as="targetPoint" />
          </mxGeometry>
        </mxCell>
        <mxCell id="4zg3qLO7-xDs-M1nTAMU-349" value="" style="endArrow=classic;html=1;rounded=0;labelBackgroundColor=default;strokeColor=default;align=center;verticalAlign=middle;fontFamily=Helvetica;fontSize=11;fontColor=default;shape=connector;edgeStyle=none;" parent="1" edge="1">
          <mxGeometry width="50" height="50" relative="1" as="geometry">
            <mxPoint x="976.9200000000001" y="450" as="sourcePoint" />
            <mxPoint x="976.9200000000001" y="570" as="targetPoint" />
          </mxGeometry>
        </mxCell>
        <mxCell id="4zg3qLO7-xDs-M1nTAMU-350" value="" style="endArrow=classic;html=1;rounded=0;labelBackgroundColor=default;strokeColor=default;align=center;verticalAlign=middle;fontFamily=Helvetica;fontSize=11;fontColor=default;shape=connector;edgeStyle=none;" parent="1" edge="1">
          <mxGeometry width="50" height="50" relative="1" as="geometry">
            <mxPoint x="1060" y="450" as="sourcePoint" />
            <mxPoint x="1060" y="570" as="targetPoint" />
          </mxGeometry>
        </mxCell>
        <mxCell id="4zg3qLO7-xDs-M1nTAMU-351" value="" style="endArrow=classic;html=1;rounded=0;labelBackgroundColor=default;strokeColor=default;align=center;verticalAlign=middle;fontFamily=Helvetica;fontSize=11;fontColor=default;shape=connector;edgeStyle=none;" parent="1" edge="1">
          <mxGeometry width="50" height="50" relative="1" as="geometry">
            <mxPoint x="1140" y="450" as="sourcePoint" />
            <mxPoint x="1140" y="570" as="targetPoint" />
          </mxGeometry>
        </mxCell>
        <mxCell id="4zg3qLO7-xDs-M1nTAMU-352" value="" style="endArrow=classic;html=1;rounded=0;labelBackgroundColor=default;strokeColor=default;align=center;verticalAlign=middle;fontFamily=Helvetica;fontSize=11;fontColor=default;shape=connector;edgeStyle=none;" parent="1" edge="1">
          <mxGeometry width="50" height="50" relative="1" as="geometry">
            <mxPoint x="1220" y="450" as="sourcePoint" />
            <mxPoint x="1220" y="570" as="targetPoint" />
          </mxGeometry>
        </mxCell>
        <mxCell id="4zg3qLO7-xDs-M1nTAMU-353" value="" style="endArrow=classic;html=1;rounded=0;labelBackgroundColor=default;strokeColor=default;align=center;verticalAlign=middle;fontFamily=Helvetica;fontSize=11;fontColor=default;shape=connector;edgeStyle=none;" parent="1" edge="1">
          <mxGeometry width="50" height="50" relative="1" as="geometry">
            <mxPoint x="1300" y="450" as="sourcePoint" />
            <mxPoint x="1300" y="570" as="targetPoint" />
          </mxGeometry>
        </mxCell>
        <mxCell id="4zg3qLO7-xDs-M1nTAMU-354" value="" style="endArrow=classic;html=1;rounded=0;labelBackgroundColor=default;strokeColor=default;align=center;verticalAlign=middle;fontFamily=Helvetica;fontSize=11;fontColor=default;shape=connector;edgeStyle=none;" parent="1" edge="1">
          <mxGeometry width="50" height="50" relative="1" as="geometry">
            <mxPoint x="1380" y="450" as="sourcePoint" />
            <mxPoint x="1380" y="570" as="targetPoint" />
          </mxGeometry>
        </mxCell>
        <mxCell id="4zg3qLO7-xDs-M1nTAMU-355" value="" style="endArrow=classic;html=1;rounded=0;labelBackgroundColor=default;strokeColor=default;align=center;verticalAlign=middle;fontFamily=Helvetica;fontSize=11;fontColor=default;shape=connector;edgeStyle=none;" parent="1" edge="1">
          <mxGeometry width="50" height="50" relative="1" as="geometry">
            <mxPoint x="1460" y="450" as="sourcePoint" />
            <mxPoint x="1460" y="570" as="targetPoint" />
          </mxGeometry>
        </mxCell>
        <mxCell id="4zg3qLO7-xDs-M1nTAMU-356" value="" style="endArrow=classic;html=1;rounded=0;labelBackgroundColor=default;strokeColor=default;align=center;verticalAlign=middle;fontFamily=Helvetica;fontSize=11;fontColor=default;shape=connector;edgeStyle=none;" parent="1" edge="1">
          <mxGeometry width="50" height="50" relative="1" as="geometry">
            <mxPoint x="1540" y="450" as="sourcePoint" />
            <mxPoint x="1540" y="570" as="targetPoint" />
          </mxGeometry>
        </mxCell>
        <mxCell id="4zg3qLO7-xDs-M1nTAMU-357" value="" style="endArrow=classic;html=1;rounded=0;labelBackgroundColor=default;strokeColor=default;align=center;verticalAlign=middle;fontFamily=Helvetica;fontSize=11;fontColor=default;shape=connector;edgeStyle=none;" parent="1" edge="1">
          <mxGeometry width="50" height="50" relative="1" as="geometry">
            <mxPoint x="1616.92" y="450" as="sourcePoint" />
            <mxPoint x="1616.92" y="570" as="targetPoint" />
          </mxGeometry>
        </mxCell>
        <mxCell id="4zg3qLO7-xDs-M1nTAMU-358" value="" style="endArrow=classic;html=1;rounded=0;labelBackgroundColor=default;strokeColor=default;align=center;verticalAlign=middle;fontFamily=Helvetica;fontSize=11;fontColor=default;shape=connector;edgeStyle=none;" parent="1" edge="1">
          <mxGeometry width="50" height="50" relative="1" as="geometry">
            <mxPoint x="1700" y="450" as="sourcePoint" />
            <mxPoint x="1700" y="570" as="targetPoint" />
          </mxGeometry>
        </mxCell>
        <mxCell id="4zg3qLO7-xDs-M1nTAMU-360" style="edgeStyle=none;shape=connector;rounded=0;orthogonalLoop=1;jettySize=auto;html=1;labelBackgroundColor=default;strokeColor=default;align=center;verticalAlign=middle;fontFamily=Helvetica;fontSize=11;fontColor=default;startArrow=none;startFill=0;endArrow=classic;endFill=1;exitX=0.58;exitY=1.029;exitDx=0;exitDy=0;exitPerimeter=0;" parent="1" source="4zg3qLO7-xDs-M1nTAMU-304" target="4zg3qLO7-xDs-M1nTAMU-206" edge="1">
          <mxGeometry relative="1" as="geometry">
            <mxPoint x="-1182" as="sourcePoint" />
            <mxPoint x="-88" y="263" as="targetPoint" />
          </mxGeometry>
        </mxCell>
      </root>
    </mxGraphModel>
  </diagram>
</mxfile>
